# xmcd database file
#
# Track frame offsets:
# 150
# 24300
# 42572
# 60865
# 80690
# 101062
# 133410
# 147587
# 176840
# 198957
# 219562
# 247667
#
# Disc length: 3625 seconds
#
# Revision: 2
# Processed by: cddbd v1.4PL0 Copyright (c) Steve Scherf et al.
# Submitted via: CD-Runner 2004.01
#
DISCID=ad0e270c
DTITLE=Ronnie Lovejoy - Nobody's Fault But Mine
DYEAR=1999
DGENRE=Blues
TTITLE0=Nobody's Fault But Mine
TTITLE1=A.P.B. Out On Me
TTITLE2=Love Doctor
TTITLE3=Sweet Thang
TTITLE4=Both To Blame
TTITLE5=Sho Wasn't Me
TTITLE6=Ain't Gonna Get My Love
TTITLE7=Midnight Flight
TTITLE8=Live In Man
TTITLE9=A Good Time
TTITLE10=Tears
TTITLE11=Give My Life
EXTD=
EXTT0=
EXTT1=
EXTT2=
EXTT3=
EXTT4=
EXTT5=
EXTT6=
EXTT7=
EXTT8=
EXTT9=
EXTT10=
EXTT11=
PLAYORDER=
